<mxfile host="app.diagrams.net" modified="2022-09-23T09:41:49.929Z" agent="5.0 (Windows NT 10.0; Win64; x64) AppleWebKit/537.36 (KHTML, like Gecko) Chrome/105.0.0.0 Safari/537.36" etag="tthlojJCkFcRSJXfotDT" version="20.3.3" type="github">
  <diagram id="-Ri-eujr5-XnjYRFH_-H" name="Page-1">
    <mxGraphModel dx="1774" dy="934" grid="1" gridSize="10" guides="1" tooltips="1" connect="1" arrows="1" fold="1" page="1" pageScale="1" pageWidth="1654" pageHeight="1169" math="0" shadow="0">
      <root>
        <mxCell id="0" />
        <mxCell id="1" parent="0" />
        <mxCell id="dFlkfczqMgpmjnni6pKT-1" value="" style="shape=mxgraph.cisco.routers.router;sketch=0;html=1;pointerEvents=1;dashed=0;fillColor=#036897;strokeColor=#ffffff;strokeWidth=2;verticalLabelPosition=bottom;verticalAlign=top;align=center;outlineConnect=0;" vertex="1" parent="1">
          <mxGeometry x="314.5" y="200" width="78" height="53" as="geometry" />
        </mxCell>
        <mxCell id="dFlkfczqMgpmjnni6pKT-4" value="" style="shape=mxgraph.cisco.switches.layer_3_switch;sketch=0;html=1;pointerEvents=1;dashed=0;fillColor=#036897;strokeColor=#ffffff;strokeWidth=2;verticalLabelPosition=bottom;verticalAlign=top;align=center;outlineConnect=0;" vertex="1" parent="1">
          <mxGeometry x="321.5" y="310" width="64" height="64" as="geometry" />
        </mxCell>
        <mxCell id="dFlkfczqMgpmjnni6pKT-6" value="" style="shape=mxgraph.cisco.switches.workgroup_switch;sketch=0;html=1;pointerEvents=1;dashed=0;fillColor=#036897;strokeColor=#ffffff;strokeWidth=2;verticalLabelPosition=bottom;verticalAlign=top;align=center;outlineConnect=0;" vertex="1" parent="1">
          <mxGeometry x="303" y="440" width="101" height="50" as="geometry" />
        </mxCell>
        <mxCell id="dFlkfczqMgpmjnni6pKT-14" value="" style="endArrow=none;html=1;rounded=0;entryX=0.5;entryY=1;entryDx=0;entryDy=0;entryPerimeter=0;exitX=0.5;exitY=0;exitDx=0;exitDy=0;exitPerimeter=0;" edge="1" parent="1" source="dFlkfczqMgpmjnni6pKT-4" target="dFlkfczqMgpmjnni6pKT-1">
          <mxGeometry width="50" height="50" relative="1" as="geometry">
            <mxPoint x="342.5" y="320" as="sourcePoint" />
            <mxPoint x="392.5" y="270" as="targetPoint" />
          </mxGeometry>
        </mxCell>
        <mxCell id="dFlkfczqMgpmjnni6pKT-15" value="" style="endArrow=none;html=1;rounded=0;entryX=0.5;entryY=1;entryDx=0;entryDy=0;entryPerimeter=0;exitX=0.5;exitY=0;exitDx=0;exitDy=0;exitPerimeter=0;" edge="1" parent="1" source="dFlkfczqMgpmjnni6pKT-6" target="dFlkfczqMgpmjnni6pKT-4">
          <mxGeometry width="50" height="50" relative="1" as="geometry">
            <mxPoint x="350" y="470" as="sourcePoint" />
            <mxPoint x="400" y="420" as="targetPoint" />
          </mxGeometry>
        </mxCell>
        <mxCell id="dFlkfczqMgpmjnni6pKT-16" value="" style="shape=mxgraph.cisco.routers.router;sketch=0;html=1;pointerEvents=1;dashed=0;fillColor=#036897;strokeColor=#ffffff;strokeWidth=2;verticalLabelPosition=bottom;verticalAlign=top;align=center;outlineConnect=0;" vertex="1" parent="1">
          <mxGeometry x="501.5" y="197" width="78" height="53" as="geometry" />
        </mxCell>
        <mxCell id="dFlkfczqMgpmjnni6pKT-17" value="" style="shape=mxgraph.cisco.switches.layer_3_switch;sketch=0;html=1;pointerEvents=1;dashed=0;fillColor=#036897;strokeColor=#ffffff;strokeWidth=2;verticalLabelPosition=bottom;verticalAlign=top;align=center;outlineConnect=0;" vertex="1" parent="1">
          <mxGeometry x="508.5" y="307" width="64" height="64" as="geometry" />
        </mxCell>
        <mxCell id="dFlkfczqMgpmjnni6pKT-18" value="" style="shape=mxgraph.cisco.switches.workgroup_switch;sketch=0;html=1;pointerEvents=1;dashed=0;fillColor=#036897;strokeColor=#ffffff;strokeWidth=2;verticalLabelPosition=bottom;verticalAlign=top;align=center;outlineConnect=0;" vertex="1" parent="1">
          <mxGeometry x="490" y="437" width="101" height="50" as="geometry" />
        </mxCell>
        <mxCell id="dFlkfczqMgpmjnni6pKT-19" value="" style="endArrow=none;html=1;rounded=0;entryX=0.5;entryY=1;entryDx=0;entryDy=0;entryPerimeter=0;exitX=0.5;exitY=0;exitDx=0;exitDy=0;exitPerimeter=0;" edge="1" parent="1" source="dFlkfczqMgpmjnni6pKT-17" target="dFlkfczqMgpmjnni6pKT-16">
          <mxGeometry width="50" height="50" relative="1" as="geometry">
            <mxPoint x="529.5" y="317" as="sourcePoint" />
            <mxPoint x="579.5" y="267" as="targetPoint" />
          </mxGeometry>
        </mxCell>
        <mxCell id="dFlkfczqMgpmjnni6pKT-20" value="" style="endArrow=none;html=1;rounded=0;entryX=0.5;entryY=1;entryDx=0;entryDy=0;entryPerimeter=0;exitX=0.5;exitY=0;exitDx=0;exitDy=0;exitPerimeter=0;" edge="1" parent="1" source="dFlkfczqMgpmjnni6pKT-18" target="dFlkfczqMgpmjnni6pKT-17">
          <mxGeometry width="50" height="50" relative="1" as="geometry">
            <mxPoint x="537" y="467" as="sourcePoint" />
            <mxPoint x="587" y="417" as="targetPoint" />
          </mxGeometry>
        </mxCell>
        <mxCell id="dFlkfczqMgpmjnni6pKT-21" value="" style="shape=mxgraph.cisco.servers.fileserver;sketch=0;html=1;pointerEvents=1;dashed=0;fillColor=#036897;strokeColor=#ffffff;strokeWidth=2;verticalLabelPosition=bottom;verticalAlign=top;align=center;outlineConnect=0;" vertex="1" parent="1">
          <mxGeometry x="150" y="360" width="43" height="62" as="geometry" />
        </mxCell>
        <mxCell id="dFlkfczqMgpmjnni6pKT-22" value="" style="shape=mxgraph.cisco.servers.file_server;sketch=0;html=1;pointerEvents=1;dashed=0;fillColor=#036897;strokeColor=#ffffff;strokeWidth=2;verticalLabelPosition=bottom;verticalAlign=top;align=center;outlineConnect=0;" vertex="1" parent="1">
          <mxGeometry x="150" y="270" width="43" height="58" as="geometry" />
        </mxCell>
        <mxCell id="dFlkfczqMgpmjnni6pKT-23" value="" style="endArrow=none;html=1;rounded=0;exitX=1;exitY=0.5;exitDx=0;exitDy=0;exitPerimeter=0;entryX=0;entryY=0.5;entryDx=0;entryDy=0;entryPerimeter=0;" edge="1" parent="1" source="dFlkfczqMgpmjnni6pKT-22" target="dFlkfczqMgpmjnni6pKT-4">
          <mxGeometry width="50" height="50" relative="1" as="geometry">
            <mxPoint x="230" y="330" as="sourcePoint" />
            <mxPoint x="280" y="280" as="targetPoint" />
          </mxGeometry>
        </mxCell>
        <mxCell id="dFlkfczqMgpmjnni6pKT-24" value="" style="endArrow=none;html=1;rounded=0;exitX=1;exitY=0.5;exitDx=0;exitDy=0;exitPerimeter=0;entryX=0;entryY=0.5;entryDx=0;entryDy=0;entryPerimeter=0;" edge="1" parent="1" source="dFlkfczqMgpmjnni6pKT-21" target="dFlkfczqMgpmjnni6pKT-4">
          <mxGeometry width="50" height="50" relative="1" as="geometry">
            <mxPoint x="203" y="390" as="sourcePoint" />
            <mxPoint x="331.5" y="413" as="targetPoint" />
          </mxGeometry>
        </mxCell>
        <mxCell id="dFlkfczqMgpmjnni6pKT-25" value="" style="whiteSpace=wrap;html=1;aspect=fixed;fillColor=none;" vertex="1" parent="1">
          <mxGeometry x="131.5" y="259" width="80" height="80" as="geometry" />
        </mxCell>
        <mxCell id="dFlkfczqMgpmjnni6pKT-26" value="DMZ" style="text;html=1;align=center;verticalAlign=middle;resizable=0;points=[];autosize=1;strokeColor=none;fillColor=none;" vertex="1" parent="1">
          <mxGeometry x="143" y="229" width="50" height="30" as="geometry" />
        </mxCell>
        <mxCell id="dFlkfczqMgpmjnni6pKT-27" value="" style="endArrow=none;html=1;rounded=0;entryX=0.5;entryY=0.98;entryDx=0;entryDy=0;entryPerimeter=0;exitX=0.5;exitY=0;exitDx=0;exitDy=0;exitPerimeter=0;" edge="1" parent="1" source="dFlkfczqMgpmjnni6pKT-44" target="dFlkfczqMgpmjnni6pKT-6">
          <mxGeometry width="50" height="50" relative="1" as="geometry">
            <mxPoint x="354" y="550" as="sourcePoint" />
            <mxPoint x="340" y="510" as="targetPoint" />
          </mxGeometry>
        </mxCell>
        <mxCell id="dFlkfczqMgpmjnni6pKT-28" value="" style="endArrow=none;html=1;rounded=0;exitX=0.5;exitY=0;exitDx=0;exitDy=0;exitPerimeter=0;entryX=0.5;entryY=1;entryDx=0;entryDy=0;entryPerimeter=0;" edge="1" parent="1" source="dFlkfczqMgpmjnni6pKT-6" target="dFlkfczqMgpmjnni6pKT-17">
          <mxGeometry width="50" height="50" relative="1" as="geometry">
            <mxPoint x="375" y="430" as="sourcePoint" />
            <mxPoint x="425" y="380" as="targetPoint" />
          </mxGeometry>
        </mxCell>
        <mxCell id="dFlkfczqMgpmjnni6pKT-29" value="" style="endArrow=none;html=1;rounded=0;exitX=0.5;exitY=1;exitDx=0;exitDy=0;exitPerimeter=0;entryX=0.5;entryY=0;entryDx=0;entryDy=0;entryPerimeter=0;" edge="1" parent="1" source="dFlkfczqMgpmjnni6pKT-4" target="dFlkfczqMgpmjnni6pKT-18">
          <mxGeometry width="50" height="50" relative="1" as="geometry">
            <mxPoint x="363.5" y="450" as="sourcePoint" />
            <mxPoint x="550.5" y="381" as="targetPoint" />
          </mxGeometry>
        </mxCell>
        <mxCell id="dFlkfczqMgpmjnni6pKT-30" value="" style="endArrow=none;html=1;rounded=0;exitX=0.5;exitY=1;exitDx=0;exitDy=0;exitPerimeter=0;entryX=0.5;entryY=0;entryDx=0;entryDy=0;entryPerimeter=0;" edge="1" parent="1" source="dFlkfczqMgpmjnni6pKT-1" target="dFlkfczqMgpmjnni6pKT-17">
          <mxGeometry width="50" height="50" relative="1" as="geometry">
            <mxPoint x="363.5" y="259" as="sourcePoint" />
            <mxPoint x="550.5" y="322" as="targetPoint" />
          </mxGeometry>
        </mxCell>
        <mxCell id="dFlkfczqMgpmjnni6pKT-31" value="" style="endArrow=none;html=1;rounded=0;exitX=0.5;exitY=0;exitDx=0;exitDy=0;exitPerimeter=0;entryX=0.5;entryY=1;entryDx=0;entryDy=0;entryPerimeter=0;" edge="1" parent="1" source="dFlkfczqMgpmjnni6pKT-4" target="dFlkfczqMgpmjnni6pKT-16">
          <mxGeometry width="50" height="50" relative="1" as="geometry">
            <mxPoint x="385.5" y="285" as="sourcePoint" />
            <mxPoint x="572.5" y="339" as="targetPoint" />
          </mxGeometry>
        </mxCell>
        <mxCell id="dFlkfczqMgpmjnni6pKT-32" value="" style="endArrow=none;html=1;rounded=0;exitX=0.98;exitY=0.5;exitDx=0;exitDy=0;exitPerimeter=0;entryX=0;entryY=0.5;entryDx=0;entryDy=0;entryPerimeter=0;" edge="1" parent="1" source="dFlkfczqMgpmjnni6pKT-6" target="dFlkfczqMgpmjnni6pKT-18">
          <mxGeometry width="50" height="50" relative="1" as="geometry">
            <mxPoint x="420" y="520" as="sourcePoint" />
            <mxPoint x="470" y="470" as="targetPoint" />
          </mxGeometry>
        </mxCell>
        <mxCell id="dFlkfczqMgpmjnni6pKT-33" value="" style="endArrow=none;html=1;rounded=0;exitX=1;exitY=0.5;exitDx=0;exitDy=0;exitPerimeter=0;entryX=0;entryY=0.5;entryDx=0;entryDy=0;entryPerimeter=0;" edge="1" parent="1" source="dFlkfczqMgpmjnni6pKT-4" target="dFlkfczqMgpmjnni6pKT-17">
          <mxGeometry width="50" height="50" relative="1" as="geometry">
            <mxPoint x="392.5" y="343.5" as="sourcePoint" />
            <mxPoint x="480.52" y="340.5" as="targetPoint" />
          </mxGeometry>
        </mxCell>
        <mxCell id="dFlkfczqMgpmjnni6pKT-35" value="" style="aspect=fixed;perimeter=ellipsePerimeter;html=1;align=center;shadow=0;dashed=0;spacingTop=3;image;image=img/lib/active_directory/firewall.svg;fillColor=none;" vertex="1" parent="1">
          <mxGeometry x="338.25" y="120" width="30.5" height="50" as="geometry" />
        </mxCell>
        <mxCell id="dFlkfczqMgpmjnni6pKT-36" value="" style="aspect=fixed;perimeter=ellipsePerimeter;html=1;align=center;shadow=0;dashed=0;spacingTop=3;image;image=img/lib/active_directory/firewall.svg;fillColor=none;" vertex="1" parent="1">
          <mxGeometry x="525.25" y="120" width="30.5" height="50" as="geometry" />
        </mxCell>
        <mxCell id="dFlkfczqMgpmjnni6pKT-37" value="" style="endArrow=none;html=1;rounded=0;exitX=0.5;exitY=0;exitDx=0;exitDy=0;exitPerimeter=0;entryX=0.5;entryY=1;entryDx=0;entryDy=0;" edge="1" parent="1" source="dFlkfczqMgpmjnni6pKT-1" target="dFlkfczqMgpmjnni6pKT-35">
          <mxGeometry width="50" height="50" relative="1" as="geometry">
            <mxPoint x="440" y="400" as="sourcePoint" />
            <mxPoint x="490" y="350" as="targetPoint" />
          </mxGeometry>
        </mxCell>
        <mxCell id="dFlkfczqMgpmjnni6pKT-38" value="" style="endArrow=none;html=1;rounded=0;entryX=0.5;entryY=0;entryDx=0;entryDy=0;entryPerimeter=0;exitX=0.5;exitY=1;exitDx=0;exitDy=0;" edge="1" parent="1" source="dFlkfczqMgpmjnni6pKT-36" target="dFlkfczqMgpmjnni6pKT-16">
          <mxGeometry width="50" height="50" relative="1" as="geometry">
            <mxPoint x="440" y="400" as="sourcePoint" />
            <mxPoint x="490" y="350" as="targetPoint" />
          </mxGeometry>
        </mxCell>
        <mxCell id="dFlkfczqMgpmjnni6pKT-39" value="" style="endArrow=none;html=1;rounded=0;exitX=0.5;exitY=0;exitDx=0;exitDy=0;exitPerimeter=0;entryX=0.5;entryY=1;entryDx=0;entryDy=0;" edge="1" parent="1" source="dFlkfczqMgpmjnni6pKT-1" target="dFlkfczqMgpmjnni6pKT-36">
          <mxGeometry width="50" height="50" relative="1" as="geometry">
            <mxPoint x="363.5" y="210" as="sourcePoint" />
            <mxPoint x="363.5" y="180" as="targetPoint" />
          </mxGeometry>
        </mxCell>
        <mxCell id="dFlkfczqMgpmjnni6pKT-40" value="" style="endArrow=none;html=1;rounded=0;exitX=0.5;exitY=1;exitDx=0;exitDy=0;entryX=0.5;entryY=0;entryDx=0;entryDy=0;entryPerimeter=0;" edge="1" parent="1" source="dFlkfczqMgpmjnni6pKT-35" target="dFlkfczqMgpmjnni6pKT-16">
          <mxGeometry width="50" height="50" relative="1" as="geometry">
            <mxPoint x="363.5" y="210" as="sourcePoint" />
            <mxPoint x="550.5" y="180" as="targetPoint" />
          </mxGeometry>
        </mxCell>
        <mxCell id="dFlkfczqMgpmjnni6pKT-41" value="" style="endArrow=none;html=1;rounded=0;entryX=0.5;entryY=1;entryDx=0;entryDy=0;exitX=1;exitY=0;exitDx=0;exitDy=0;" edge="1" parent="1" source="dFlkfczqMgpmjnni6pKT-35" target="dFlkfczqMgpmjnni6pKT-87">
          <mxGeometry width="50" height="50" relative="1" as="geometry">
            <mxPoint x="385.5" y="170" as="sourcePoint" />
            <mxPoint x="451.4449999999997" y="110" as="targetPoint" />
          </mxGeometry>
        </mxCell>
        <mxCell id="dFlkfczqMgpmjnni6pKT-42" value="" style="endArrow=none;html=1;rounded=0;entryX=0.25;entryY=0;entryDx=0;entryDy=0;exitX=0.5;exitY=1;exitDx=0;exitDy=0;" edge="1" parent="1" source="dFlkfczqMgpmjnni6pKT-87" target="dFlkfczqMgpmjnni6pKT-36">
          <mxGeometry width="50" height="50" relative="1" as="geometry">
            <mxPoint x="451.4449999999997" y="110" as="sourcePoint" />
            <mxPoint x="461.44499999999994" y="120" as="targetPoint" />
          </mxGeometry>
        </mxCell>
        <mxCell id="dFlkfczqMgpmjnni6pKT-43" value="&lt;font style=&quot;font-size: 31px;&quot;&gt;België&lt;/font&gt;" style="text;html=1;align=center;verticalAlign=middle;resizable=0;points=[];autosize=1;strokeColor=none;fillColor=none;" vertex="1" parent="1">
          <mxGeometry x="150" y="90" width="110" height="50" as="geometry" />
        </mxCell>
        <mxCell id="dFlkfczqMgpmjnni6pKT-44" value="" style="shape=mxgraph.cisco.computers_and_peripherals.pc;html=1;pointerEvents=1;dashed=0;fillColor=#036897;strokeColor=#ffffff;strokeWidth=2;verticalLabelPosition=bottom;verticalAlign=top;align=center;outlineConnect=0;" vertex="1" parent="1">
          <mxGeometry x="314.5" y="630" width="78" height="70" as="geometry" />
        </mxCell>
        <mxCell id="dFlkfczqMgpmjnni6pKT-45" value="" style="shape=mxgraph.cisco.computers_and_peripherals.pc;html=1;pointerEvents=1;dashed=0;fillColor=#036897;strokeColor=#ffffff;strokeWidth=2;verticalLabelPosition=bottom;verticalAlign=top;align=center;outlineConnect=0;" vertex="1" parent="1">
          <mxGeometry x="501.5" y="630" width="78" height="70" as="geometry" />
        </mxCell>
        <mxCell id="dFlkfczqMgpmjnni6pKT-46" value="" style="endArrow=none;html=1;rounded=0;entryX=0.5;entryY=0.98;entryDx=0;entryDy=0;entryPerimeter=0;exitX=0.5;exitY=0;exitDx=0;exitDy=0;exitPerimeter=0;" edge="1" parent="1" source="dFlkfczqMgpmjnni6pKT-45" target="dFlkfczqMgpmjnni6pKT-18">
          <mxGeometry width="50" height="50" relative="1" as="geometry">
            <mxPoint x="299" y="640" as="sourcePoint" />
            <mxPoint x="363.5" y="499" as="targetPoint" />
          </mxGeometry>
        </mxCell>
        <mxCell id="dFlkfczqMgpmjnni6pKT-48" value="" style="whiteSpace=wrap;html=1;aspect=fixed;fillColor=none;" vertex="1" parent="1">
          <mxGeometry x="303" y="620" width="100" height="100" as="geometry" />
        </mxCell>
        <mxCell id="dFlkfczqMgpmjnni6pKT-49" value="Vlan 5 Productie" style="text;html=1;align=center;verticalAlign=middle;resizable=0;points=[];autosize=1;strokeColor=none;fillColor=none;" vertex="1" parent="1">
          <mxGeometry x="298" y="720" width="110" height="30" as="geometry" />
        </mxCell>
        <mxCell id="dFlkfczqMgpmjnni6pKT-50" value="" style="whiteSpace=wrap;html=1;aspect=fixed;fillColor=none;" vertex="1" parent="1">
          <mxGeometry x="490" y="620" width="100" height="100" as="geometry" />
        </mxCell>
        <mxCell id="dFlkfczqMgpmjnni6pKT-51" value="Vlan 6 ontwikkeling" style="text;html=1;align=center;verticalAlign=middle;resizable=0;points=[];autosize=1;strokeColor=none;fillColor=none;" vertex="1" parent="1">
          <mxGeometry x="475" y="720" width="130" height="30" as="geometry" />
        </mxCell>
        <mxCell id="dFlkfczqMgpmjnni6pKT-52" value="" style="whiteSpace=wrap;html=1;aspect=fixed;fillColor=none;" vertex="1" parent="1">
          <mxGeometry x="131.5" y="351" width="80" height="80" as="geometry" />
        </mxCell>
        <mxCell id="dFlkfczqMgpmjnni6pKT-53" value="Vlan 7" style="text;html=1;align=center;verticalAlign=middle;resizable=0;points=[];autosize=1;strokeColor=none;fillColor=none;" vertex="1" parent="1">
          <mxGeometry x="138" y="431" width="60" height="30" as="geometry" />
        </mxCell>
        <mxCell id="dFlkfczqMgpmjnni6pKT-54" value="Italië" style="text;html=1;align=center;verticalAlign=middle;resizable=0;points=[];autosize=1;strokeColor=none;fillColor=none;fontSize=31;" vertex="1" parent="1">
          <mxGeometry x="1440" y="90" width="90" height="50" as="geometry" />
        </mxCell>
        <mxCell id="dFlkfczqMgpmjnni6pKT-55" value="" style="shape=mxgraph.cisco.routers.router;sketch=0;html=1;pointerEvents=1;dashed=0;fillColor=#036897;strokeColor=#ffffff;strokeWidth=2;verticalLabelPosition=bottom;verticalAlign=top;align=center;outlineConnect=0;" vertex="1" parent="1">
          <mxGeometry x="1126.5" y="207" width="78" height="53" as="geometry" />
        </mxCell>
        <mxCell id="dFlkfczqMgpmjnni6pKT-56" value="" style="shape=mxgraph.cisco.switches.layer_3_switch;sketch=0;html=1;pointerEvents=1;dashed=0;fillColor=#036897;strokeColor=#ffffff;strokeWidth=2;verticalLabelPosition=bottom;verticalAlign=top;align=center;outlineConnect=0;" vertex="1" parent="1">
          <mxGeometry x="1133.5" y="320" width="64" height="64" as="geometry" />
        </mxCell>
        <mxCell id="dFlkfczqMgpmjnni6pKT-57" value="" style="shape=mxgraph.cisco.switches.workgroup_switch;sketch=0;html=1;pointerEvents=1;dashed=0;fillColor=#036897;strokeColor=#ffffff;strokeWidth=2;verticalLabelPosition=bottom;verticalAlign=top;align=center;outlineConnect=0;" vertex="1" parent="1">
          <mxGeometry x="1204.5" y="461" width="101" height="50" as="geometry" />
        </mxCell>
        <mxCell id="dFlkfczqMgpmjnni6pKT-58" value="" style="endArrow=none;html=1;rounded=0;entryX=0.5;entryY=1;entryDx=0;entryDy=0;entryPerimeter=0;exitX=0.5;exitY=0;exitDx=0;exitDy=0;exitPerimeter=0;" edge="1" parent="1" source="dFlkfczqMgpmjnni6pKT-56" target="dFlkfczqMgpmjnni6pKT-55">
          <mxGeometry width="50" height="50" relative="1" as="geometry">
            <mxPoint x="1154.5" y="330" as="sourcePoint" />
            <mxPoint x="1204.5" y="280" as="targetPoint" />
          </mxGeometry>
        </mxCell>
        <mxCell id="dFlkfczqMgpmjnni6pKT-59" value="" style="endArrow=none;html=1;rounded=0;entryX=0.5;entryY=1;entryDx=0;entryDy=0;entryPerimeter=0;exitX=0.5;exitY=0;exitDx=0;exitDy=0;exitPerimeter=0;" edge="1" parent="1" source="dFlkfczqMgpmjnni6pKT-57" target="dFlkfczqMgpmjnni6pKT-56">
          <mxGeometry width="50" height="50" relative="1" as="geometry">
            <mxPoint x="1162" y="480" as="sourcePoint" />
            <mxPoint x="1212" y="430" as="targetPoint" />
          </mxGeometry>
        </mxCell>
        <mxCell id="dFlkfczqMgpmjnni6pKT-60" value="" style="shape=mxgraph.cisco.routers.router;sketch=0;html=1;pointerEvents=1;dashed=0;fillColor=#036897;strokeColor=#ffffff;strokeWidth=2;verticalLabelPosition=bottom;verticalAlign=top;align=center;outlineConnect=0;" vertex="1" parent="1">
          <mxGeometry x="1313.5" y="207" width="78" height="53" as="geometry" />
        </mxCell>
        <mxCell id="dFlkfczqMgpmjnni6pKT-61" value="" style="shape=mxgraph.cisco.switches.layer_3_switch;sketch=0;html=1;pointerEvents=1;dashed=0;fillColor=#036897;strokeColor=#ffffff;strokeWidth=2;verticalLabelPosition=bottom;verticalAlign=top;align=center;outlineConnect=0;" vertex="1" parent="1">
          <mxGeometry x="1320.5" y="317" width="64" height="64" as="geometry" />
        </mxCell>
        <mxCell id="dFlkfczqMgpmjnni6pKT-63" value="" style="endArrow=none;html=1;rounded=0;entryX=0.5;entryY=1;entryDx=0;entryDy=0;entryPerimeter=0;exitX=0.5;exitY=0;exitDx=0;exitDy=0;exitPerimeter=0;" edge="1" parent="1" source="dFlkfczqMgpmjnni6pKT-61" target="dFlkfczqMgpmjnni6pKT-60">
          <mxGeometry width="50" height="50" relative="1" as="geometry">
            <mxPoint x="1341.5" y="327" as="sourcePoint" />
            <mxPoint x="1391.5" y="277" as="targetPoint" />
          </mxGeometry>
        </mxCell>
        <mxCell id="dFlkfczqMgpmjnni6pKT-65" value="" style="endArrow=none;html=1;rounded=0;entryX=0.5;entryY=0.98;entryDx=0;entryDy=0;entryPerimeter=0;exitX=0.5;exitY=0;exitDx=0;exitDy=0;exitPerimeter=0;" edge="1" parent="1" source="dFlkfczqMgpmjnni6pKT-80" target="dFlkfczqMgpmjnni6pKT-57">
          <mxGeometry width="50" height="50" relative="1" as="geometry">
            <mxPoint x="1166" y="560" as="sourcePoint" />
            <mxPoint x="1152" y="520" as="targetPoint" />
          </mxGeometry>
        </mxCell>
        <mxCell id="dFlkfczqMgpmjnni6pKT-66" value="" style="endArrow=none;html=1;rounded=0;exitX=0.5;exitY=0;exitDx=0;exitDy=0;exitPerimeter=0;entryX=0.5;entryY=1;entryDx=0;entryDy=0;entryPerimeter=0;" edge="1" parent="1" source="dFlkfczqMgpmjnni6pKT-57" target="dFlkfczqMgpmjnni6pKT-61">
          <mxGeometry width="50" height="50" relative="1" as="geometry">
            <mxPoint x="1187" y="440" as="sourcePoint" />
            <mxPoint x="1237" y="390" as="targetPoint" />
          </mxGeometry>
        </mxCell>
        <mxCell id="dFlkfczqMgpmjnni6pKT-68" value="" style="endArrow=none;html=1;rounded=0;exitX=0.5;exitY=1;exitDx=0;exitDy=0;exitPerimeter=0;entryX=0.5;entryY=0;entryDx=0;entryDy=0;entryPerimeter=0;" edge="1" parent="1" source="dFlkfczqMgpmjnni6pKT-55" target="dFlkfczqMgpmjnni6pKT-61">
          <mxGeometry width="50" height="50" relative="1" as="geometry">
            <mxPoint x="1175.5" y="269" as="sourcePoint" />
            <mxPoint x="1362.5" y="332" as="targetPoint" />
          </mxGeometry>
        </mxCell>
        <mxCell id="dFlkfczqMgpmjnni6pKT-69" value="" style="endArrow=none;html=1;rounded=0;exitX=0.5;exitY=0;exitDx=0;exitDy=0;exitPerimeter=0;entryX=0.5;entryY=1;entryDx=0;entryDy=0;entryPerimeter=0;" edge="1" parent="1" source="dFlkfczqMgpmjnni6pKT-56" target="dFlkfczqMgpmjnni6pKT-60">
          <mxGeometry width="50" height="50" relative="1" as="geometry">
            <mxPoint x="1197.5" y="295" as="sourcePoint" />
            <mxPoint x="1384.5" y="349" as="targetPoint" />
          </mxGeometry>
        </mxCell>
        <mxCell id="dFlkfczqMgpmjnni6pKT-71" value="" style="endArrow=none;html=1;rounded=0;exitX=1;exitY=0.5;exitDx=0;exitDy=0;exitPerimeter=0;entryX=0;entryY=0.5;entryDx=0;entryDy=0;entryPerimeter=0;" edge="1" parent="1" source="dFlkfczqMgpmjnni6pKT-56" target="dFlkfczqMgpmjnni6pKT-61">
          <mxGeometry width="50" height="50" relative="1" as="geometry">
            <mxPoint x="1204.5" y="353.5" as="sourcePoint" />
            <mxPoint x="1292.52" y="350.5" as="targetPoint" />
          </mxGeometry>
        </mxCell>
        <mxCell id="dFlkfczqMgpmjnni6pKT-72" value="" style="aspect=fixed;perimeter=ellipsePerimeter;html=1;align=center;shadow=0;dashed=0;spacingTop=3;image;image=img/lib/active_directory/firewall.svg;fillColor=none;" vertex="1" parent="1">
          <mxGeometry x="1150.25" y="130" width="30.5" height="50" as="geometry" />
        </mxCell>
        <mxCell id="dFlkfczqMgpmjnni6pKT-73" value="" style="aspect=fixed;perimeter=ellipsePerimeter;html=1;align=center;shadow=0;dashed=0;spacingTop=3;image;image=img/lib/active_directory/firewall.svg;fillColor=none;" vertex="1" parent="1">
          <mxGeometry x="1337.25" y="130" width="30.5" height="50" as="geometry" />
        </mxCell>
        <mxCell id="dFlkfczqMgpmjnni6pKT-74" value="" style="endArrow=none;html=1;rounded=0;exitX=0.5;exitY=0;exitDx=0;exitDy=0;exitPerimeter=0;entryX=0.5;entryY=1;entryDx=0;entryDy=0;" edge="1" parent="1" source="dFlkfczqMgpmjnni6pKT-55" target="dFlkfczqMgpmjnni6pKT-72">
          <mxGeometry width="50" height="50" relative="1" as="geometry">
            <mxPoint x="1252" y="410" as="sourcePoint" />
            <mxPoint x="1302" y="360" as="targetPoint" />
          </mxGeometry>
        </mxCell>
        <mxCell id="dFlkfczqMgpmjnni6pKT-75" value="" style="endArrow=none;html=1;rounded=0;entryX=0.5;entryY=0;entryDx=0;entryDy=0;entryPerimeter=0;exitX=0.5;exitY=1;exitDx=0;exitDy=0;" edge="1" parent="1" source="dFlkfczqMgpmjnni6pKT-73" target="dFlkfczqMgpmjnni6pKT-60">
          <mxGeometry width="50" height="50" relative="1" as="geometry">
            <mxPoint x="1252" y="410" as="sourcePoint" />
            <mxPoint x="1302" y="360" as="targetPoint" />
          </mxGeometry>
        </mxCell>
        <mxCell id="dFlkfczqMgpmjnni6pKT-76" value="" style="endArrow=none;html=1;rounded=0;exitX=0.5;exitY=0;exitDx=0;exitDy=0;exitPerimeter=0;entryX=0.5;entryY=1;entryDx=0;entryDy=0;" edge="1" parent="1" source="dFlkfczqMgpmjnni6pKT-55" target="dFlkfczqMgpmjnni6pKT-73">
          <mxGeometry width="50" height="50" relative="1" as="geometry">
            <mxPoint x="1175.5" y="220" as="sourcePoint" />
            <mxPoint x="1175.5" y="190" as="targetPoint" />
          </mxGeometry>
        </mxCell>
        <mxCell id="dFlkfczqMgpmjnni6pKT-77" value="" style="endArrow=none;html=1;rounded=0;exitX=0.5;exitY=1;exitDx=0;exitDy=0;entryX=0.5;entryY=0;entryDx=0;entryDy=0;entryPerimeter=0;" edge="1" parent="1" source="dFlkfczqMgpmjnni6pKT-72" target="dFlkfczqMgpmjnni6pKT-60">
          <mxGeometry width="50" height="50" relative="1" as="geometry">
            <mxPoint x="1175.5" y="220" as="sourcePoint" />
            <mxPoint x="1362.5" y="190" as="targetPoint" />
          </mxGeometry>
        </mxCell>
        <mxCell id="dFlkfczqMgpmjnni6pKT-78" value="" style="endArrow=none;html=1;rounded=0;entryX=0.5;entryY=1;entryDx=0;entryDy=0;exitX=1;exitY=0;exitDx=0;exitDy=0;" edge="1" parent="1" source="dFlkfczqMgpmjnni6pKT-72" target="dFlkfczqMgpmjnni6pKT-87">
          <mxGeometry width="50" height="50" relative="1" as="geometry">
            <mxPoint x="1197.5" y="180" as="sourcePoint" />
            <mxPoint x="1263.4449999999997" y="120" as="targetPoint" />
          </mxGeometry>
        </mxCell>
        <mxCell id="dFlkfczqMgpmjnni6pKT-79" value="" style="endArrow=none;html=1;rounded=0;entryX=0.25;entryY=0;entryDx=0;entryDy=0;exitX=0.5;exitY=1;exitDx=0;exitDy=0;" edge="1" parent="1" target="dFlkfczqMgpmjnni6pKT-73" source="dFlkfczqMgpmjnni6pKT-87">
          <mxGeometry width="50" height="50" relative="1" as="geometry">
            <mxPoint x="1263.4449999999997" y="120" as="sourcePoint" />
            <mxPoint x="1273.445" y="130" as="targetPoint" />
          </mxGeometry>
        </mxCell>
        <mxCell id="dFlkfczqMgpmjnni6pKT-80" value="" style="shape=mxgraph.cisco.computers_and_peripherals.pc;html=1;pointerEvents=1;dashed=0;fillColor=#036897;strokeColor=#ffffff;strokeWidth=2;verticalLabelPosition=bottom;verticalAlign=top;align=center;outlineConnect=0;" vertex="1" parent="1">
          <mxGeometry x="1216.5" y="615" width="78" height="70" as="geometry" />
        </mxCell>
        <mxCell id="dFlkfczqMgpmjnni6pKT-83" value="" style="whiteSpace=wrap;html=1;aspect=fixed;fillColor=none;" vertex="1" parent="1">
          <mxGeometry x="1205" y="605" width="100" height="100" as="geometry" />
        </mxCell>
        <mxCell id="dFlkfczqMgpmjnni6pKT-84" value="Vlan 5 Productie" style="text;html=1;align=center;verticalAlign=middle;resizable=0;points=[];autosize=1;strokeColor=none;fillColor=none;" vertex="1" parent="1">
          <mxGeometry x="1200" y="705" width="110" height="30" as="geometry" />
        </mxCell>
        <mxCell id="dFlkfczqMgpmjnni6pKT-87" value="" style="aspect=fixed;perimeter=ellipsePerimeter;html=1;align=center;shadow=0;dashed=0;spacingTop=3;image;image=img/lib/active_directory/internet_cloud.svg;" vertex="1" parent="1">
          <mxGeometry x="810" y="20" width="111.11" height="70" as="geometry" />
        </mxCell>
        <mxCell id="dFlkfczqMgpmjnni6pKT-89" value="Cloud" style="text;html=1;align=center;verticalAlign=middle;resizable=0;points=[];autosize=1;strokeColor=none;fillColor=none;fontSize=31;" vertex="1" parent="1">
          <mxGeometry x="810" y="30" width="100" height="50" as="geometry" />
        </mxCell>
        <mxCell id="dFlkfczqMgpmjnni6pKT-90" value="" style="html=1;strokeWidth=1;shadow=0;dashed=0;shape=mxgraph.ios7.misc.vpn;fillColor=#007AFF;strokeColor=none;buttonText=;strokeColor2=#222222;fontColor=#222222;fontSize=8;verticalLabelPosition=bottom;verticalAlign=top;align=center;sketch=0;" vertex="1" parent="1">
          <mxGeometry x="827" y="188" width="70" height="65" as="geometry" />
        </mxCell>
        <mxCell id="dFlkfczqMgpmjnni6pKT-91" value="" style="endArrow=none;html=1;rounded=0;fontSize=31;exitX=1;exitY=0.5;exitDx=0;exitDy=0;exitPerimeter=0;entryX=-0.028;entryY=0.57;entryDx=0;entryDy=0;entryPerimeter=0;" edge="1" parent="1" source="dFlkfczqMgpmjnni6pKT-16" target="dFlkfczqMgpmjnni6pKT-90">
          <mxGeometry width="50" height="50" relative="1" as="geometry">
            <mxPoint x="860" y="450" as="sourcePoint" />
            <mxPoint x="910" y="400" as="targetPoint" />
          </mxGeometry>
        </mxCell>
        <mxCell id="dFlkfczqMgpmjnni6pKT-92" value="" style="endArrow=none;html=1;rounded=0;fontSize=31;exitX=1.027;exitY=0.549;exitDx=0;exitDy=0;exitPerimeter=0;entryX=0;entryY=0.5;entryDx=0;entryDy=0;entryPerimeter=0;" edge="1" parent="1" source="dFlkfczqMgpmjnni6pKT-90" target="dFlkfczqMgpmjnni6pKT-55">
          <mxGeometry width="50" height="50" relative="1" as="geometry">
            <mxPoint x="589.5" y="233.5" as="sourcePoint" />
            <mxPoint x="828.0400000000004" y="235.04999999999995" as="targetPoint" />
          </mxGeometry>
        </mxCell>
        <mxCell id="dFlkfczqMgpmjnni6pKT-94" value="&lt;span style=&quot;font-size: 11px;&quot;&gt;g0/0&lt;/span&gt;" style="text;html=1;align=center;verticalAlign=middle;resizable=0;points=[];autosize=1;strokeColor=none;fillColor=none;fontSize=30;" vertex="1" parent="1">
          <mxGeometry x="532.5" y="157" width="40" height="50" as="geometry" />
        </mxCell>
        <mxCell id="dFlkfczqMgpmjnni6pKT-95" value="&lt;span style=&quot;font-size: 11px;&quot;&gt;g0/0&lt;/span&gt;" style="text;html=1;align=center;verticalAlign=middle;resizable=0;points=[];autosize=1;strokeColor=none;fillColor=none;fontSize=30;" vertex="1" parent="1">
          <mxGeometry x="318" y="165" width="40" height="50" as="geometry" />
        </mxCell>
        <mxCell id="dFlkfczqMgpmjnni6pKT-96" value="&lt;span style=&quot;font-size: 11px;&quot;&gt;g0/0&lt;/span&gt;" style="text;html=1;align=center;verticalAlign=middle;resizable=0;points=[];autosize=1;strokeColor=none;fillColor=none;fontSize=30;" vertex="1" parent="1">
          <mxGeometry x="319" y="138" width="40" height="50" as="geometry" />
        </mxCell>
        <mxCell id="dFlkfczqMgpmjnni6pKT-97" value="&lt;span style=&quot;font-size: 11px;&quot;&gt;g0/0&lt;/span&gt;" style="text;html=1;align=center;verticalAlign=middle;resizable=0;points=[];autosize=1;strokeColor=none;fillColor=none;fontSize=30;" vertex="1" parent="1">
          <mxGeometry x="534" y="142" width="40" height="50" as="geometry" />
        </mxCell>
        <mxCell id="dFlkfczqMgpmjnni6pKT-98" value="&lt;span style=&quot;font-size: 11px;&quot;&gt;g0/1&lt;/span&gt;" style="text;html=1;align=center;verticalAlign=middle;resizable=0;points=[];autosize=1;strokeColor=none;fillColor=none;fontSize=30;" vertex="1" parent="1">
          <mxGeometry x="365" y="133" width="40" height="50" as="geometry" />
        </mxCell>
        <mxCell id="dFlkfczqMgpmjnni6pKT-99" value="&lt;span style=&quot;font-size: 11px;&quot;&gt;g0/1&lt;/span&gt;" style="text;html=1;align=center;verticalAlign=middle;resizable=0;points=[];autosize=1;strokeColor=none;fillColor=none;fontSize=30;" vertex="1" parent="1">
          <mxGeometry x="492.5" y="133" width="40" height="50" as="geometry" />
        </mxCell>
        <mxCell id="dFlkfczqMgpmjnni6pKT-100" value="&lt;span style=&quot;font-size: 11px;&quot;&gt;g0/1&lt;/span&gt;" style="text;html=1;align=center;verticalAlign=middle;resizable=0;points=[];autosize=1;strokeColor=none;fillColor=none;fontSize=30;" vertex="1" parent="1">
          <mxGeometry x="475" y="170" width="40" height="50" as="geometry" />
        </mxCell>
        <mxCell id="dFlkfczqMgpmjnni6pKT-101" value="&lt;span style=&quot;font-size: 11px;&quot;&gt;g0/1&lt;/span&gt;" style="text;html=1;align=center;verticalAlign=middle;resizable=0;points=[];autosize=1;strokeColor=none;fillColor=none;fontSize=30;" vertex="1" parent="1">
          <mxGeometry x="380" y="170" width="40" height="50" as="geometry" />
        </mxCell>
        <mxCell id="dFlkfczqMgpmjnni6pKT-102" value="&lt;span style=&quot;font-size: 11px;&quot;&gt;g0/2&lt;/span&gt;" style="text;html=1;align=center;verticalAlign=middle;resizable=0;points=[];autosize=1;strokeColor=none;fillColor=none;fontSize=30;" vertex="1" parent="1">
          <mxGeometry x="539.5" y="229" width="40" height="50" as="geometry" />
        </mxCell>
        <mxCell id="dFlkfczqMgpmjnni6pKT-103" value="&lt;span style=&quot;font-size: 11px;&quot;&gt;g0/2&lt;/span&gt;" style="text;html=1;align=center;verticalAlign=middle;resizable=0;points=[];autosize=1;strokeColor=none;fillColor=none;fontSize=30;" vertex="1" parent="1">
          <mxGeometry x="314.5" y="229" width="40" height="50" as="geometry" />
        </mxCell>
        <mxCell id="dFlkfczqMgpmjnni6pKT-105" value="&lt;span style=&quot;font-size: 11px;&quot;&gt;g0/0&lt;/span&gt;" style="text;html=1;align=center;verticalAlign=middle;resizable=0;points=[];autosize=1;strokeColor=none;fillColor=none;fontSize=30;" vertex="1" parent="1">
          <mxGeometry x="534" y="270" width="40" height="50" as="geometry" />
        </mxCell>
        <mxCell id="dFlkfczqMgpmjnni6pKT-106" value="&lt;span style=&quot;font-size: 11px;&quot;&gt;g0/0&lt;/span&gt;" style="text;html=1;align=center;verticalAlign=middle;resizable=0;points=[];autosize=1;strokeColor=none;fillColor=none;fontSize=30;" vertex="1" parent="1">
          <mxGeometry x="318" y="274" width="40" height="50" as="geometry" />
        </mxCell>
        <mxCell id="dFlkfczqMgpmjnni6pKT-107" value="&lt;span style=&quot;font-size: 11px;&quot;&gt;g0/3&lt;/span&gt;" style="text;html=1;align=center;verticalAlign=middle;resizable=0;points=[];autosize=1;strokeColor=none;fillColor=none;fontSize=30;" vertex="1" parent="1">
          <mxGeometry x="380" y="220" width="40" height="50" as="geometry" />
        </mxCell>
        <mxCell id="dFlkfczqMgpmjnni6pKT-108" value="&lt;span style=&quot;font-size: 11px;&quot;&gt;g0/3&lt;/span&gt;" style="text;html=1;align=center;verticalAlign=middle;resizable=0;points=[];autosize=1;strokeColor=none;fillColor=none;fontSize=30;" vertex="1" parent="1">
          <mxGeometry x="485.25" y="220" width="40" height="50" as="geometry" />
        </mxCell>
        <mxCell id="dFlkfczqMgpmjnni6pKT-109" value="&lt;span style=&quot;font-size: 11px;&quot;&gt;g0/1&lt;/span&gt;" style="text;html=1;align=center;verticalAlign=middle;resizable=0;points=[];autosize=1;strokeColor=none;fillColor=none;fontSize=30;" vertex="1" parent="1">
          <mxGeometry x="370" y="274" width="40" height="50" as="geometry" />
        </mxCell>
        <mxCell id="dFlkfczqMgpmjnni6pKT-110" value="&lt;span style=&quot;font-size: 11px;&quot;&gt;g0/1&lt;/span&gt;" style="text;html=1;align=center;verticalAlign=middle;resizable=0;points=[];autosize=1;strokeColor=none;fillColor=none;fontSize=30;" vertex="1" parent="1">
          <mxGeometry x="475" y="274" width="40" height="50" as="geometry" />
        </mxCell>
        <mxCell id="dFlkfczqMgpmjnni6pKT-111" value="&lt;span style=&quot;font-size: 11px;&quot;&gt;g0/2&lt;/span&gt;" style="text;html=1;align=center;verticalAlign=middle;resizable=0;points=[];autosize=1;strokeColor=none;fillColor=none;fontSize=30;" vertex="1" parent="1">
          <mxGeometry x="475" y="301" width="40" height="50" as="geometry" />
        </mxCell>
        <mxCell id="dFlkfczqMgpmjnni6pKT-112" value="&lt;span style=&quot;font-size: 11px;&quot;&gt;g0/2&lt;/span&gt;" style="text;html=1;align=center;verticalAlign=middle;resizable=0;points=[];autosize=1;strokeColor=none;fillColor=none;fontSize=30;" vertex="1" parent="1">
          <mxGeometry x="380" y="301" width="40" height="50" as="geometry" />
        </mxCell>
        <mxCell id="dFlkfczqMgpmjnni6pKT-113" value="&lt;span style=&quot;font-size: 11px;&quot;&gt;g0/3&lt;/span&gt;" style="text;html=1;align=center;verticalAlign=middle;resizable=0;points=[];autosize=1;strokeColor=none;fillColor=none;fontSize=30;" vertex="1" parent="1">
          <mxGeometry x="380" y="340" width="40" height="50" as="geometry" />
        </mxCell>
        <mxCell id="dFlkfczqMgpmjnni6pKT-114" value="&lt;span style=&quot;font-size: 11px;&quot;&gt;g0/3&lt;/span&gt;" style="text;html=1;align=center;verticalAlign=middle;resizable=0;points=[];autosize=1;strokeColor=none;fillColor=none;fontSize=30;" vertex="1" parent="1">
          <mxGeometry x="475" y="340" width="40" height="50" as="geometry" />
        </mxCell>
        <mxCell id="dFlkfczqMgpmjnni6pKT-115" value="&lt;span style=&quot;font-size: 11px;&quot;&gt;g0/4&lt;/span&gt;" style="text;html=1;align=center;verticalAlign=middle;resizable=0;points=[];autosize=1;strokeColor=none;fillColor=none;fontSize=30;" vertex="1" parent="1">
          <mxGeometry x="539.5" y="351" width="40" height="50" as="geometry" />
        </mxCell>
        <mxCell id="dFlkfczqMgpmjnni6pKT-116" value="&lt;span style=&quot;font-size: 11px;&quot;&gt;g0/4&lt;/span&gt;" style="text;html=1;align=center;verticalAlign=middle;resizable=0;points=[];autosize=1;strokeColor=none;fillColor=none;fontSize=30;" vertex="1" parent="1">
          <mxGeometry x="314.5" y="351" width="40" height="50" as="geometry" />
        </mxCell>
        <mxCell id="dFlkfczqMgpmjnni6pKT-117" value="&lt;span style=&quot;font-size: 11px;&quot;&gt;g0/0&lt;/span&gt;" style="text;html=1;align=center;verticalAlign=middle;resizable=0;points=[];autosize=1;strokeColor=none;fillColor=none;fontSize=30;" vertex="1" parent="1">
          <mxGeometry x="534" y="395" width="40" height="50" as="geometry" />
        </mxCell>
        <mxCell id="dFlkfczqMgpmjnni6pKT-118" value="&lt;span style=&quot;font-size: 11px;&quot;&gt;g0/0&lt;/span&gt;" style="text;html=1;align=center;verticalAlign=middle;resizable=0;points=[];autosize=1;strokeColor=none;fillColor=none;fontSize=30;" vertex="1" parent="1">
          <mxGeometry x="317" y="401" width="40" height="50" as="geometry" />
        </mxCell>
        <mxCell id="dFlkfczqMgpmjnni6pKT-119" value="&lt;span style=&quot;font-size: 11px;&quot;&gt;g0/2&lt;/span&gt;" style="text;html=1;align=center;verticalAlign=middle;resizable=0;points=[];autosize=1;strokeColor=none;fillColor=none;fontSize=30;" vertex="1" parent="1">
          <mxGeometry x="461.5" y="421" width="40" height="50" as="geometry" />
        </mxCell>
        <mxCell id="dFlkfczqMgpmjnni6pKT-120" value="&lt;span style=&quot;font-size: 11px;&quot;&gt;g0/2&lt;/span&gt;" style="text;html=1;align=center;verticalAlign=middle;resizable=0;points=[];autosize=1;strokeColor=none;fillColor=none;fontSize=30;" vertex="1" parent="1">
          <mxGeometry x="403" y="421" width="40" height="50" as="geometry" />
        </mxCell>
        <mxCell id="dFlkfczqMgpmjnni6pKT-121" value="&lt;span style=&quot;font-size: 11px;&quot;&gt;g0/1&lt;/span&gt;" style="text;html=1;align=center;verticalAlign=middle;resizable=0;points=[];autosize=1;strokeColor=none;fillColor=none;fontSize=30;" vertex="1" parent="1">
          <mxGeometry x="380" y="401" width="40" height="50" as="geometry" />
        </mxCell>
        <mxCell id="dFlkfczqMgpmjnni6pKT-122" value="&lt;span style=&quot;font-size: 11px;&quot;&gt;g0/1&lt;/span&gt;" style="text;html=1;align=center;verticalAlign=middle;resizable=0;points=[];autosize=1;strokeColor=none;fillColor=none;fontSize=30;" vertex="1" parent="1">
          <mxGeometry x="485.25" y="401" width="40" height="50" as="geometry" />
        </mxCell>
        <mxCell id="dFlkfczqMgpmjnni6pKT-123" value="&lt;span style=&quot;font-size: 11px;&quot;&gt;g0/5&lt;/span&gt;" style="text;html=1;align=center;verticalAlign=middle;resizable=0;points=[];autosize=1;strokeColor=none;fillColor=none;fontSize=30;" vertex="1" parent="1">
          <mxGeometry x="281.5" y="290" width="40" height="50" as="geometry" />
        </mxCell>
        <mxCell id="dFlkfczqMgpmjnni6pKT-124" value="&lt;span style=&quot;font-size: 11px;&quot;&gt;g0/6&lt;/span&gt;" style="text;html=1;align=center;verticalAlign=middle;resizable=0;points=[];autosize=1;strokeColor=none;fillColor=none;fontSize=30;" vertex="1" parent="1">
          <mxGeometry x="281.5" y="328" width="40" height="50" as="geometry" />
        </mxCell>
        <mxCell id="dFlkfczqMgpmjnni6pKT-125" value="192.168.0.0/24" style="text;html=1;align=center;verticalAlign=middle;resizable=0;points=[];autosize=1;strokeColor=none;fillColor=none;fontSize=11;" vertex="1" parent="1">
          <mxGeometry x="251.5" y="554" width="100" height="30" as="geometry" />
        </mxCell>
        <mxCell id="dFlkfczqMgpmjnni6pKT-126" value="192.168.1.0/24" style="text;html=1;align=center;verticalAlign=middle;resizable=0;points=[];autosize=1;strokeColor=none;fillColor=none;fontSize=11;" vertex="1" parent="1">
          <mxGeometry x="555.75" y="550" width="100" height="30" as="geometry" />
        </mxCell>
      </root>
    </mxGraphModel>
  </diagram>
</mxfile>
